<svg width="current" height="current" viewBox="0 0 80 80" fill="current" stroke="current" xmlns="http://www.w3.org/2000/svg">
<path stroke="current" fill="current" fill-rule="evenodd" clip-rule="evenodd" d="M69.6636 59.5856V39.1581C69.6636 37.6126 69.6611 36.7627 69.6285 36.1251C69.6121 35.803 69.592 35.649 69.5838 35.5974C69.5202 35.3731 69.4198 35.161 69.2866 34.9697C69.2519 34.9306 69.1455 34.8175 68.9068 34.6006C68.4343 34.1713 67.7785 33.6307 66.583 32.6511L54.0827 22.4078C50.5679 19.5276 48.2815 17.661 46.411 16.3472C44.6274 15.0944 43.7037 14.6993 43.0706 14.521C41.2059 13.9957 39.2323 13.9957 37.3677 14.521C36.7345 14.6993 35.8108 15.0944 34.0272 16.3472C32.1567 17.661 29.8703 19.5276 26.3555 22.4078L13.8552 32.6511C12.6597 33.6307 12.0039 34.1713 11.5314 34.6006C11.2926 34.8175 11.1863 34.9306 11.1516 34.9697C11.0184 35.161 10.918 35.3731 10.8544 35.5974C10.8462 35.649 10.8261 35.803 10.8097 36.1251C10.7771 36.7627 10.7746 37.6125 10.7746 39.1581V59.5856C10.7746 62.1506 10.7792 63.653 10.8552 64.7667C10.8942 65.3388 10.9433 65.6178 10.9635 65.7146C11.1739 66.1769 11.5445 66.5475 12.0067 66.7578C12.1035 66.7781 12.3826 66.8271 12.9546 66.8661C14.0683 66.9421 15.5708 66.9467 18.1358 66.9467H25.4969V51.6987C25.4969 43.5678 32.0882 36.9764 40.2191 36.9764C48.35 36.9764 54.9413 43.5678 54.9413 51.6987V66.9467H62.3025C64.8675 66.9467 66.3699 66.9421 67.4836 66.8661C68.0557 66.8271 68.3347 66.7781 68.4315 66.7578C68.8937 66.5475 69.2644 66.1769 69.4747 65.7146C69.4949 65.6178 69.544 65.3388 69.583 64.7667C69.659 63.653 69.6636 62.1506 69.6636 59.5856ZM69.4652 65.7556C69.4652 65.7557 69.4655 65.7544 69.4662 65.7521C69.4656 65.7545 69.4653 65.7556 69.4652 65.7556ZM68.4725 66.7484C68.4725 66.7484 68.4714 66.7487 68.469 66.7493C68.4713 66.7487 68.4725 66.7484 68.4725 66.7484ZM11.9657 66.7484C11.9657 66.7484 11.9669 66.7487 11.9693 66.7493C11.9668 66.7487 11.9657 66.7484 11.9657 66.7484ZM10.973 65.7556C10.973 65.7557 10.9726 65.7545 10.972 65.7521C10.9727 65.7544 10.973 65.7556 10.973 65.7556ZM10.8582 35.5767C10.8582 35.577 10.8575 35.5815 10.8557 35.5895C10.8572 35.5804 10.8581 35.5764 10.8582 35.5767ZM11.138 34.9857C11.1377 34.9858 11.1403 34.9825 11.1464 34.9756C11.1412 34.9821 11.1382 34.9856 11.138 34.9857ZM69.3002 34.9857C69.2998 34.9854 69.2969 34.9819 69.2919 34.9756C69.2981 34.9828 69.3006 34.986 69.3002 34.9857ZM69.58 35.5767C69.5801 35.5766 69.581 35.5807 69.5825 35.5897C69.5807 35.5813 69.5799 35.5767 69.58 35.5767ZM2.72983 33.4139C2.36194 34.768 2.36194 36.2313 2.36194 39.1581V59.5856C2.36194 64.4854 2.36194 66.9352 3.16241 68.8678C4.22971 71.4445 6.27688 73.4916 8.85357 74.5589C10.7861 75.3594 13.236 75.3594 18.1358 75.3594H25.8095C30.2831 75.3594 33.9096 71.7329 33.9096 67.2593V51.6987C33.9096 48.214 36.7344 45.3891 40.2191 45.3891C43.7038 45.3891 46.5286 48.214 46.5286 51.6987V67.2593C46.5286 71.7329 50.1552 75.3594 54.6287 75.3594H62.3025C67.2022 75.3594 69.6521 75.3594 71.5846 74.5589C74.1613 73.4916 76.2085 71.4445 77.2758 68.8678C78.0763 66.9352 78.0763 64.4854 78.0763 59.5856V39.1581C78.0763 36.2313 78.0763 34.768 77.7084 33.4139C77.3824 32.2142 76.8464 31.0819 76.125 30.0694C75.3109 28.9266 74.179 27.9991 71.9152 26.144L59.4149 15.9007C52.5769 10.2974 49.1579 7.49569 45.3517 6.42345C41.9953 5.47791 38.4429 5.47791 35.0865 6.42345C31.2803 7.49569 27.8613 10.2974 21.0233 15.9007L8.52302 26.144C6.25922 27.9991 5.12732 28.9266 4.31317 30.0694C3.59185 31.0819 3.05577 32.2142 2.72983 33.4139Z" />
</svg>
