<svg width="current" height="current" viewBox="0 0 84 84" fill="none" xmlns="http://www.w3.org/2000/svg">
<path fill="current" stroke="current" fill-rule="evenodd" clip-rule="evenodd" d="M57.5171 20.4615C57.5171 29.0314 50.5699 35.9786 42 35.9786C33.4301 35.9786 26.4829 29.0314 26.4829 20.4615C26.4829 11.8917 33.4301 4.94445 42 4.94445C50.5699 4.94445 57.5171 11.8917 57.5171 20.4615ZM60.4615 20.4615C60.4615 30.6576 52.196 38.9231 42 38.9231C31.804 38.9231 23.5385 30.6576 23.5385 20.4615C23.5385 10.2655 31.804 2 42 2C52.196 2 60.4615 10.2655 60.4615 20.4615ZM78.9658 69.4162C79.2395 72.5529 78.8574 74.2439 78.2124 75.2597C77.6174 76.1967 76.4532 77.0918 73.7744 77.7644C71.0645 78.4447 67.2516 78.7857 61.9295 78.938C57.5486 79.0634 52.3125 79.0591 46.0402 79.0539H46.0399H46.0355C44.7354 79.0528 43.3908 79.0517 42 79.0517C40.6092 79.0517 39.2646 79.0528 37.9645 79.0539H37.9601H37.9598C31.6875 79.0591 26.4514 79.0634 22.0705 78.938C16.7484 78.7857 12.9355 78.4447 10.2256 77.7644C7.54677 77.0918 6.38262 76.1967 5.78762 75.2597C5.14261 74.2439 4.76048 72.5529 5.03424 69.4162C5.51981 63.8528 9.27283 58.1974 15.8536 53.8367C22.3972 49.5006 31.5006 46.6328 42 46.6328C52.4994 46.6328 61.6028 49.5006 68.1464 53.8367C74.7272 58.1974 78.4802 63.8528 78.9658 69.4162ZM81.899 69.1602C83.0222 82.0293 75.0075 82.0226 46.0218 81.9983C44.7236 81.9972 43.3834 81.9961 42 81.9961C40.6166 81.9961 39.2763 81.9972 37.9782 81.9983C8.99246 82.0226 0.977753 82.0293 2.10095 69.1602C3.27445 55.7147 19.9644 43.6883 42 43.6883C64.0356 43.6883 80.7255 55.7147 81.899 69.1602Z" />
<path fill="current" stroke="current" d="M78.2124 75.2597L76.524 74.1876V74.1876L78.2124 75.2597ZM78.9658 69.4162L76.9733 69.5901L78.9658 69.4162ZM73.7744 77.7644L74.2614 79.7042L73.7744 77.7644ZM61.9295 78.938L61.8723 76.9388L61.9295 78.938ZM46.0402 79.0539L46.0419 77.0539H46.0402V79.0539ZM46.0355 79.0539L46.0339 81.0539H46.0355V79.0539ZM37.9645 79.0539V81.0539H37.9661L37.9645 79.0539ZM37.9598 79.0539V77.0539H37.9581L37.9598 79.0539ZM22.0705 78.938L22.1277 76.9388L22.0705 78.938ZM10.2256 77.7644L9.73865 79.7042H9.73865L10.2256 77.7644ZM5.78762 75.2597L7.47599 74.1876L7.47599 74.1876L5.78762 75.2597ZM5.03424 69.4162L7.02667 69.5901L5.03424 69.4162ZM15.8536 53.8367L14.7489 52.1695L15.8536 53.8367ZM68.1464 53.8367L69.2511 52.1695L68.1464 53.8367ZM46.0218 81.9983L46.0235 79.9983L46.0218 81.9983ZM81.899 69.1602L83.8915 68.9863L81.899 69.1602ZM37.9782 81.9983L37.9765 79.9983L37.9782 81.9983ZM2.10095 69.1602L4.09337 69.3341L2.10095 69.1602ZM42 37.9786C51.6744 37.9786 59.5171 30.136 59.5171 20.4615H55.5171C55.5171 27.9268 49.4653 33.9786 42 33.9786V37.9786ZM24.4829 20.4615C24.4829 30.136 32.3256 37.9786 42 37.9786V33.9786C34.5347 33.9786 28.4829 27.9268 28.4829 20.4615H24.4829ZM42 2.94445C32.3256 2.94445 24.4829 10.7871 24.4829 20.4615H28.4829C28.4829 12.9963 34.5347 6.94445 42 6.94445V2.94445ZM59.5171 20.4615C59.5171 10.7871 51.6744 2.94445 42 2.94445V6.94445C49.4653 6.94445 55.5171 12.9963 55.5171 20.4615H59.5171ZM42 40.9231C53.3006 40.9231 62.4615 31.7621 62.4615 20.4615H58.4615C58.4615 29.553 51.0915 36.9231 42 36.9231V40.9231ZM21.5385 20.4615C21.5385 31.7621 30.6994 40.9231 42 40.9231V36.9231C32.9085 36.9231 25.5385 29.553 25.5385 20.4615H21.5385ZM42 0C30.6994 0 21.5385 9.16094 21.5385 20.4615H25.5385C25.5385 11.3701 32.9085 4 42 4V0ZM62.4615 20.4615C62.4615 9.16094 53.3006 0 42 0V4C51.0915 4 58.4615 11.3701 58.4615 20.4615H62.4615ZM79.9007 76.3318C80.8985 74.7606 81.2453 72.5317 80.9582 69.2423L76.9733 69.5901C77.2338 72.5741 76.8163 73.7273 76.524 74.1876L79.9007 76.3318ZM74.2614 79.7042C77.192 78.9684 78.9205 77.8756 79.9007 76.3318L76.524 74.1876C76.3143 74.5179 75.7145 75.2152 73.2874 75.8246L74.2614 79.7042ZM61.9867 80.9372C67.3237 80.7845 71.3244 80.4415 74.2614 79.7042L73.2874 75.8246C70.8046 76.4479 67.1794 76.787 61.8723 76.9388L61.9867 80.9372ZM46.0386 81.0539C52.3008 81.059 57.57 81.0636 61.9867 80.9372L61.8723 76.9388C57.5273 77.0632 52.3242 77.0591 46.0419 77.0539L46.0386 81.0539ZM46.0399 81.0539H46.0402V77.0539H46.0399V81.0539ZM46.0355 81.0539H46.0399V77.0539H46.0355V81.0539ZM42 81.0517C43.3898 81.0517 44.7336 81.0528 46.0339 81.0539L46.0372 77.0539C44.7372 77.0528 43.3917 77.0517 42 77.0517V81.0517ZM37.9661 81.0539C39.2664 81.0528 40.6102 81.0517 42 81.0517V77.0517C40.6083 77.0517 39.2628 77.0528 37.9628 77.0539L37.9661 81.0539ZM37.9601 81.0539H37.9645V77.0539H37.9601V81.0539ZM37.9598 81.0539H37.9601V77.0539H37.9598V81.0539ZM22.0133 80.9372C26.43 81.0636 31.6992 81.059 37.9614 81.0539L37.9581 77.0539C31.6758 77.0591 26.4727 77.0632 22.1277 76.9388L22.0133 80.9372ZM9.73865 79.7042C12.6756 80.4415 16.6762 80.7845 22.0133 80.9372L22.1277 76.9388C16.8206 76.787 13.1954 76.4479 10.7126 75.8246L9.73865 79.7042ZM4.09924 76.3318C5.07954 77.8756 6.80803 78.9684 9.73865 79.7042L10.7126 75.8246C8.28551 75.2152 7.68569 74.5179 7.47599 74.1876L4.09924 76.3318ZM3.04182 69.2423C2.75473 72.5317 3.10151 74.7606 4.09925 76.3318L7.47599 74.1876C7.18371 73.7273 6.76623 72.5741 7.02667 69.5901L3.04182 69.2423ZM14.7489 52.1695C7.83158 56.7532 3.59597 62.893 3.04182 69.2423L7.02667 69.5901C7.44364 64.8127 10.7141 59.6416 16.9584 55.5039L14.7489 52.1695ZM42 44.6328C31.1484 44.6328 21.6524 47.5949 14.7489 52.1695L16.9584 55.5039C23.142 51.4063 31.8528 48.6328 42 48.6328V44.6328ZM69.2511 52.1695C62.3476 47.5949 52.8516 44.6328 42 44.6328V48.6328C52.1472 48.6328 60.858 51.4063 67.0416 55.5039L69.2511 52.1695ZM80.9582 69.2423C80.404 62.893 76.1684 56.7532 69.2511 52.1695L67.0416 55.5039C73.2859 59.6416 76.5564 64.8127 76.9733 69.5901L80.9582 69.2423ZM46.0202 83.9983C53.2512 84.0044 59.2347 84.0098 64.0958 83.8106C68.9331 83.6125 72.8222 83.2081 75.8125 82.3339C78.8431 81.4479 81.1801 80.0104 82.5744 77.6002C83.9272 75.2617 84.1852 72.3519 83.8915 68.9863L79.9066 69.3341C80.1745 72.403 79.8519 74.3182 79.112 75.5972C78.4137 76.8044 77.146 77.7766 74.6901 78.4946C72.1939 79.2243 68.7147 79.618 63.9321 79.814C59.1733 80.0089 53.2853 80.0044 46.0235 79.9983L46.0202 83.9983ZM42 83.9961C43.3824 83.9961 44.7219 83.9972 46.0202 83.9983L46.0235 79.9983C44.7254 79.9972 43.3843 79.9961 42 79.9961V83.9961ZM37.9798 83.9983C39.2781 83.9972 40.6176 83.9961 42 83.9961V79.9961C40.6156 79.9961 39.2746 79.9972 37.9765 79.9983L37.9798 83.9983ZM0.108524 68.9863C-0.185226 72.3519 0.0728295 75.2617 1.42561 77.6002C2.81994 80.0104 5.15694 81.4479 8.18753 82.3339C11.1778 83.2081 15.0669 83.6125 19.9042 83.8106C24.7653 84.0098 30.7488 84.0044 37.9798 83.9983L37.9765 79.9983C30.7147 80.0044 24.8267 80.0089 20.0679 79.814C15.2853 79.618 11.8061 79.2243 9.30991 78.4946C6.85401 77.7766 5.58633 76.8044 4.88799 75.5972C4.14811 74.3182 3.82553 72.403 4.09337 69.3341L0.108524 68.9863ZM42 41.6883C30.6301 41.6883 20.5561 44.7892 13.1224 49.715C5.71405 54.6241 0.764007 61.476 0.108524 68.9863L4.09337 69.3341C4.61139 63.3988 8.59306 57.5149 15.3319 53.0494C22.0455 48.6007 31.3343 45.6883 42 45.6883V41.6883ZM83.8915 68.9863C83.236 61.476 78.2859 54.6241 70.8776 49.715C63.4439 44.7892 53.3699 41.6883 42 41.6883V45.6883C52.6657 45.6883 61.9545 48.6007 68.6681 53.0494C75.4069 57.5149 79.3886 63.3988 79.9066 69.3341L83.8915 68.9863Z" />
</svg>
