<svg width="current" height="current" viewBox="0 0 85 85" fill="current" xmlns="http://www.w3.org/2000/svg">
<path fill="current" fill-rule="evenodd" clip-rule="evenodd" d="M44.06 6.07141L42.5256 6.07141H42.5256C37.058 6.07137 32.6822 6.07134 29.146 6.36026C25.516 6.65685 22.3789 7.28003 19.4928 8.75057C14.8676 11.1072 11.1072 14.8676 8.75057 19.4928C7.27698 22.3849 6.65571 25.5456 6.35994 29.2059C6.07134 32.7773 6.07137 37.2071 6.07141 42.7501V43.1353C6.07137 48.6783 6.07134 53.1081 6.35994 56.6796C6.65571 60.3398 7.27698 63.5005 8.75057 66.3926C11.1072 71.0178 14.8676 74.7782 19.4928 77.1349C22.3849 78.6085 25.5456 79.2297 29.2059 79.5255C32.7773 79.8141 37.2071 79.8141 42.7501 79.814H43.1354C48.6783 79.8141 53.1081 79.8141 56.6796 79.5255C60.3398 79.2297 63.5005 78.6085 66.3926 77.1349C71.0178 74.7782 74.7782 71.0178 77.1349 66.3926C78.6054 63.5065 79.2286 60.3694 79.5252 56.7394C79.8141 53.2032 79.8141 48.8276 79.814 43.3602V43.3597V41.8254C79.814 39.3571 77.8131 37.3562 75.3448 37.3562C72.8765 37.3562 70.8755 39.3571 70.8755 41.8254V43.1662C70.8755 48.8717 70.872 52.8821 70.6164 56.0115C70.3649 59.0888 69.8921 60.9186 69.1706 62.3346C67.6709 65.2779 65.2779 67.6709 62.3346 69.1706C60.9246 69.889 59.0811 70.3638 55.9596 70.616C52.7906 70.8721 48.7222 70.8755 42.9427 70.8755C37.1632 70.8755 33.0949 70.8721 29.9258 70.616C26.8043 70.3638 24.9608 69.889 23.5508 69.1706C20.6075 67.6709 18.2145 65.2779 16.7148 62.3346C15.9964 60.9246 15.5216 59.0811 15.2694 55.9596C15.0133 52.7906 15.0099 48.7222 15.0099 42.9427C15.0099 37.1632 15.0133 33.0949 15.2694 29.9258C15.5216 26.8043 15.9964 24.9608 16.7148 23.5508C18.2145 20.6075 20.6075 18.2145 23.5508 16.7148C24.9668 15.9933 26.7966 15.5205 29.8739 15.2691C33.0034 15.0134 37.0137 15.0099 42.7193 15.0099H44.06C46.5283 15.0099 48.5293 13.009 48.5293 10.5407C48.5293 8.07236 46.5283 6.07141 44.06 6.07141ZM74.5945 17.0524C76.3398 15.307 76.3398 12.4773 74.5945 10.7319C72.8491 8.98656 70.0194 8.98656 68.274 10.7319L42.0172 36.9888C40.2718 38.7341 40.2718 41.5639 42.0172 43.3092C43.7625 45.0546 46.5923 45.0546 48.3376 43.3092L74.5945 17.0524Z" />
</svg>
